<?xml version="1.0" encoding="UTF-8" standalone="no"?>
<svg width="596px" height="120px" viewBox="0 0 596 120" version="1.1" xmlns="http://www.w3.org/2000/svg" xmlns:xlink="http://www.w3.org/1999/xlink" xmlns:sketch="http://www.bohemiancoding.com/sketch/ns">
    <!-- Generator: Sketch 3.4.4 (17249) - http://www.bohemiancoding.com/sketch -->
    <title>poolside</title>
    <desc>Created with Sketch.</desc>
    <defs></defs>
    <g id="Page-1" stroke="none" stroke-width="1" fill="none" fill-rule="evenodd" sketch:type="MSPage">
        <path d="M61.6439258,36.6087688 C67.8747507,43.1494285 70.9901164,51.3772051 70.9901164,61.2923453 C70.9901164,71.2074856 67.8747507,79.4977516 61.6439258,86.1633921 C55.413101,92.8290326 48.1227214,96.1618029 39.7725684,96.1618029 C31.4224154,96.1618029 24.7042458,92.8706922 19.6178582,86.2883722 L19.6178582,119.408108 L0.544,119.408108 L0.544,27.9226494 L19.6178582,27.9226494 L19.6178582,35.4214575 C25.467204,29.6723426 32.3761102,26.7978282 40.3447841,26.7978282 C48.3134581,26.7978282 55.413101,30.068109 61.6439258,36.6087688 L61.6439258,36.6087688 Z M24.0048456,74.9776701 C27.0990647,78.4354711 30.8502193,80.1643456 35.258422,80.1643456 C39.6666246,80.1643456 43.523744,78.4354711 46.8298959,74.9776701 C50.1360479,71.5198691 51.7890991,67.0831187 51.7890991,61.6672857 C51.7890991,56.2514528 50.1784338,51.7105534 46.957055,48.0444511 C43.7356762,44.3783488 39.8785567,42.5453252 35.385581,42.5453252 C30.8926053,42.5453252 27.0990647,44.357519 24.0048456,47.981961 C20.9106265,51.606403 19.3635401,56.1473025 19.3635401,61.6047957 C19.3635401,67.0622888 20.9106265,71.5198691 24.0048456,74.9776701 L24.0048456,74.9776701 Z M113.206923,74.9776701 C116.385915,78.4354711 120.454964,80.1643456 125.414192,80.1643456 C130.37342,80.1643456 134.442469,78.4354711 137.621461,74.9776701 C140.800453,71.5198691 142.389926,67.041459 142.389926,61.5423056 C142.389926,56.0431522 140.800453,51.5439124 137.621461,48.0444511 C134.442469,44.5449898 130.37342,42.7952854 125.414192,42.7952854 C120.454964,42.7952854 116.385915,44.5449898 113.206923,48.0444511 C110.02793,51.5439124 108.438458,56.0431522 108.438458,61.5423056 C108.438458,67.041459 110.02793,71.5198691 113.206923,74.9776701 L113.206923,74.9776701 Z M151.291059,86.1633921 C144.424436,92.8290326 135.7989,96.1618029 125.414192,96.1618029 C115.029484,96.1618029 106.403947,92.8290326 99.5373241,86.1633921 C92.6707009,79.4977516 89.2374407,71.2908048 89.2374407,61.5423056 C89.2374407,51.7938064 92.6707009,43.5660298 99.5373241,36.8587291 C106.403947,30.1514283 115.029484,26.7978282 125.414192,26.7978282 C135.7989,26.7978282 144.424436,30.1514283 151.291059,36.8587291 C158.157683,43.5660298 161.590943,51.7938064 161.590943,61.5423056 C161.590943,71.2908048 158.157683,79.4977516 151.291059,86.1633921 L151.291059,86.1633921 Z M203.68059,74.9776701 C206.859582,78.4354711 210.928631,80.1643456 215.887859,80.1643456 C220.847087,80.1643456 224.916136,78.4354711 228.095129,74.9776701 C231.274121,71.5198691 232.863593,67.041459 232.863593,61.5423056 C232.863593,56.0431522 231.274121,51.5439124 228.095129,48.0444511 C224.916136,44.5449898 220.847087,42.7952854 215.887859,42.7952854 C210.928631,42.7952854 206.859582,44.5449898 203.68059,48.0444511 C200.501598,51.5439124 198.912125,56.0431522 198.912125,61.5423056 C198.912125,67.041459 200.501598,71.5198691 203.68059,74.9776701 L203.68059,74.9776701 Z M241.764727,86.1633921 C234.898104,92.8290326 226.272567,96.1618029 215.887859,96.1618029 C205.503151,96.1618029 196.877615,92.8290326 190.010992,86.1633921 C183.144368,79.4977516 179.711108,71.2908048 179.711108,61.5423056 C179.711108,51.7938064 183.144368,43.5660298 190.010992,36.8587291 C196.877615,30.1514283 205.503151,26.7978282 215.887859,26.7978282 C226.272567,26.7978282 234.898104,30.1514283 241.764727,36.8587291 C248.63135,43.5660298 252.06461,51.7938064 252.06461,61.5423056 C252.06461,71.2908048 248.63135,79.4977516 241.764727,86.1633921 L241.764727,86.1633921 Z M293.200565,95.1619618 L274.126706,95.1619618 L274.126706,2.42670202 L293.200565,2.42670202 L293.200565,95.1619618 Z M363.265204,90.1627564 C358.305976,94.1621407 352.011666,96.1618029 344.382084,96.1618029 C339.295697,96.1618029 333.997456,95.2661208 328.487202,93.47473 C322.976949,91.6833391 318.017795,89.0379527 313.609593,85.5384914 L322.00209,73.7903588 C329.123033,79.2061917 336.710114,81.9140675 344.763561,81.9140675 C347.221982,81.9140675 349.171735,81.4349818 350.612878,80.476796 C352.054021,79.5186102 352.774582,78.2479915 352.774582,76.6649019 C352.774582,75.0818123 351.778512,73.6237253 349.786344,72.2905972 C347.794175,70.9574691 344.911932,69.7076802 341.139528,68.5411931 C337.367124,67.3747061 334.484881,66.374875 332.492713,65.5416699 C330.500544,64.7084649 328.232897,63.5003356 325.689703,61.917246 C320.518542,58.7510668 317.933001,54.0643586 317.933001,47.8569809 C317.933001,41.6496032 320.476156,36.5879583 325.562544,32.6718946 C330.648932,28.7558308 337.21875,26.7978282 345.272198,26.7978282 C353.325645,26.7978282 361.378971,29.4640444 369.432418,34.7965568 L362.311511,47.2945703 C356.377392,43.295186 350.464555,41.2955238 344.572823,41.2955238 C338.68109,41.2955238 335.735268,42.8785897 335.735268,46.0447689 C335.735268,47.7944996 336.667759,49.1692673 338.532768,50.1691134 C340.397776,51.1689595 343.491949,52.335429 347.815379,53.6685571 C352.138808,55.0016852 355.211788,56.0223461 357.03441,56.7305704 C358.857032,57.4387947 361.039908,58.5427749 363.583101,60.042544 C368.330397,62.8754412 370.704008,67.603809 370.704008,74.2277893 C370.704008,80.8517695 368.224432,86.1633721 363.265204,90.1627564 L363.265204,90.1627564 Z M412.348599,95.1619618 L393.274741,95.1619618 L393.274741,27.9226494 L412.348599,27.9226494 L412.348599,95.1619618 Z M391.621673,11.5502518 C391.621673,8.4673931 392.702514,5.86366634 394.864229,3.73899343 C397.025944,1.61432052 399.675064,0.552 402.81167,0.552 C405.948276,0.552 408.597396,1.61432052 410.759111,3.73899343 C412.920825,5.86366634 414.001667,8.4673931 414.001667,11.5502518 C414.001667,14.6331106 412.920825,17.2368373 410.759111,19.3615102 C408.597396,21.4861831 405.948276,22.5485037 402.81167,22.5485037 C399.675064,22.5485037 397.025944,21.4861831 394.864229,19.3615102 C392.702514,17.2368373 391.621673,14.6331106 391.621673,11.5502518 L391.621673,11.5502518 Z M444.074783,86.038412 C437.716799,79.289451 434.537854,70.9158657 434.537854,60.9174049 C434.537854,50.9189442 437.632027,42.7328272 443.820465,36.3588085 C450.008903,29.9847898 457.256897,26.7978282 465.564663,26.7978282 C473.87243,26.7978282 480.654178,29.6723426 485.910112,35.4214575 L485.910112,2.42670202 L504.98397,2.42670202 L504.98397,95.1619618 L485.910112,95.1619618 L485.910112,86.2883722 C480.569405,92.8706922 473.851236,96.1618029 465.755402,96.1618029 C457.659568,96.1618029 450.432768,92.787373 444.074783,86.038412 L444.074783,86.038412 Z M458.698074,74.9776701 C462.004226,78.4354711 465.861346,80.1643456 470.269548,80.1643456 C474.677751,80.1643456 478.428906,78.4354711 481.523125,74.9776701 C484.617344,71.5198691 486.16443,67.0622888 486.16443,61.6047957 C486.16443,56.1473025 484.617344,51.606403 481.523125,47.981961 C478.428906,44.357519 474.635365,42.5453252 470.142389,42.5453252 C465.649414,42.5453252 461.792294,44.3783488 458.570915,48.0444511 C455.349537,51.7105534 453.738871,56.2514528 453.738871,61.6672857 C453.738871,67.0831187 455.391922,71.5198691 458.698074,74.9776701 L458.698074,74.9776701 Z M590.244117,85.4135113 C582.529762,92.5790748 573.480366,96.1618029 563.095658,96.1618029 C552.71095,96.1618029 544.1278,93.0165009 537.34595,86.7258027 C530.5641,80.4351045 527.173225,71.9990298 527.173225,61.4173255 C527.173225,50.8356212 530.627678,42.4203763 537.536688,36.1713383 C544.445698,29.9223004 552.604989,26.7978282 562.014806,26.7978282 C571.424624,26.7978282 579.414371,29.5890233 585.984288,35.1714972 C592.554206,40.7539712 595.839115,48.4193428 595.839115,58.167842 L595.839115,68.1662527 L545.992765,68.1662527 C546.586177,71.832355 548.53593,74.8318482 551.842082,77.1648224 C555.148234,79.4977966 558.878196,80.6642662 563.032079,80.6642662 C569.729156,80.6642662 575.239326,78.4563059 579.562756,74.0403191 L590.244117,85.4135113 Z M571.933213,45.5448484 C569.305246,43.3785152 566.105108,42.2953649 562.332704,42.2953649 C558.5603,42.2953649 555.105847,43.4201749 551.969241,45.6698285 C548.832635,47.9194822 547.01004,50.9606351 546.501402,54.7933784 L576.510939,54.7933784 C576.087073,50.7939941 574.56118,47.7111816 571.933213,45.5448484 L571.933213,45.5448484 Z" id="poolside" fill="#000000" sketch:type="MSShapeGroup"></path>
    </g>
</svg>