<?xml version="1.0" encoding="UTF-8" standalone="no"?>
<svg width="596px" height="121px" viewBox="0 0 596 121" version="1.1" xmlns="http://www.w3.org/2000/svg" xmlns:xlink="http://www.w3.org/1999/xlink" xmlns:sketch="http://www.bohemiancoding.com/sketch/ns">
    <!-- Generator: Sketch 3.4.4 (17249) - http://www.bohemiancoding.com/sketch -->
    <title>poolside</title>
    <desc>Created with Sketch.</desc>
    <defs></defs>
    <g id="Page-1" stroke="none" stroke-width="1" fill="none" fill-rule="evenodd" sketch:type="MSPage">
        <path d="M61.6439258,36.7093873 C67.8747507,43.3640778 70.9901164,51.7352985 70.9901164,61.8233006 C70.9901164,71.9113027 67.8747507,80.3461024 61.6439258,87.1279525 C55.413101,93.9098027 48.1227214,97.3006769 39.7725684,97.3006769 C31.4224154,97.3006769 24.7042458,93.9521886 19.6178582,87.2551116 L19.6178582,120.952261 L0.544,120.952261 L0.544,27.871833 L19.6178582,27.871833 L19.6178582,35.5013763 C25.467204,29.6520305 32.3761102,26.7274015 40.3447841,26.7274015 C48.3134581,26.7274015 55.413101,30.0546968 61.6439258,36.7093873 L61.6439258,36.7093873 Z M24.0048456,75.7472171 C27.0990647,79.2653019 30.8502193,81.0243179 35.258422,81.0243179 C39.6666246,81.0243179 43.523744,79.2653019 46.8298959,75.7472171 C50.1360479,72.2291324 51.7890991,67.715031 51.7890991,62.2047778 C51.7890991,56.6945245 50.1784338,52.0744584 46.957055,48.3444408 C43.7356762,44.6144232 39.8785567,42.7494424 35.385581,42.7494424 C30.8926053,42.7494424 27.0990647,44.5932303 24.0048456,48.2808613 C20.9106265,51.9684923 19.3635401,56.5885584 19.3635401,62.1411983 C19.3635401,67.6938381 20.9106265,72.2291324 24.0048456,75.7472171 L24.0048456,75.7472171 Z M113.206923,75.7472171 C116.385915,79.2653019 120.454964,81.0243179 125.414192,81.0243179 C130.37342,81.0243179 134.442469,79.2653019 137.621461,75.7472171 C140.800453,72.2291324 142.389926,67.6726451 142.389926,62.0776187 C142.389926,56.4825923 140.800453,51.9049122 137.621461,48.3444408 C134.442469,44.7839695 130.37342,43.0037605 125.414192,43.0037605 C120.454964,43.0037605 116.385915,44.7839695 113.206923,48.3444408 C110.02793,51.9049122 108.438458,56.4825923 108.438458,62.0776187 C108.438458,67.6726451 110.02793,72.2291324 113.206923,75.7472171 L113.206923,75.7472171 Z M151.291059,87.1279525 C144.424436,93.9098027 135.7989,97.3006769 125.414192,97.3006769 C115.029484,97.3006769 106.403947,93.9098027 99.5373241,87.1279525 C92.6707009,80.3461024 89.2374407,71.9960746 89.2374407,62.0776187 C89.2374407,52.1591629 92.6707009,43.7879421 99.5373241,36.9637054 C106.403947,30.1394687 115.029484,26.7274015 125.414192,26.7274015 C135.7989,26.7274015 144.424436,30.1394687 151.291059,36.9637054 C158.157683,43.7879421 161.590943,52.1591629 161.590943,62.0776187 C161.590943,71.9960746 158.157683,80.3461024 151.291059,87.1279525 L151.291059,87.1279525 Z M203.68059,75.7472171 C206.859582,79.2653019 210.928631,81.0243179 215.887859,81.0243179 C220.847087,81.0243179 224.916136,79.2653019 228.095129,75.7472171 C231.274121,72.2291324 232.863593,67.6726451 232.863593,62.0776187 C232.863593,56.4825923 231.274121,51.9049122 228.095129,48.3444408 C224.916136,44.7839695 220.847087,43.0037605 215.887859,43.0037605 C210.928631,43.0037605 206.859582,44.7839695 203.68059,48.3444408 C200.501598,51.9049122 198.912125,56.4825923 198.912125,62.0776187 C198.912125,67.6726451 200.501598,72.2291324 203.68059,75.7472171 L203.68059,75.7472171 Z M241.764727,87.1279525 C234.898104,93.9098027 226.272567,97.3006769 215.887859,97.3006769 C205.503151,97.3006769 196.877615,93.9098027 190.010992,87.1279525 C183.144368,80.3461024 179.711108,71.9960746 179.711108,62.0776187 C179.711108,52.1591629 183.144368,43.7879421 190.010992,36.9637054 C196.877615,30.1394687 205.503151,26.7274015 215.887859,26.7274015 C226.272567,26.7274015 234.898104,30.1394687 241.764727,36.9637054 C248.63135,43.7879421 252.06461,52.1591629 252.06461,62.0776187 C252.06461,71.9960746 248.63135,80.3461024 241.764727,87.1279525 L241.764727,87.1279525 Z M293.200565,96.2834045 L274.126706,96.2834045 L274.126706,1.93138582 L293.200565,1.93138582 L293.200565,96.2834045 Z M363.265204,91.1970423 C358.305976,95.2661524 352.011666,97.3006769 344.382084,97.3006769 C339.295697,97.3006769 333.997456,96.3893795 328.487202,94.5667572 C322.976949,92.744135 318.017795,90.0526286 313.609593,86.4921573 L322.00209,74.5392061 C329.123033,80.0494594 336.710114,82.8045447 344.763561,82.8045447 C347.221982,82.8045447 349.171735,82.3171065 350.612878,81.3422155 C352.054021,80.3673246 352.774582,79.0745538 352.774582,77.4638644 C352.774582,75.8531749 351.778512,74.3696675 349.786344,73.0132974 C347.794175,71.6569274 344.911932,70.3853496 341.139528,69.1985258 C337.367124,68.011702 334.484881,66.9944398 332.492713,66.1467085 C330.500544,65.2989772 328.232897,64.0697853 325.689703,62.4590959 C320.518542,59.2377171 317.933001,54.4693002 317.933001,48.1537022 C317.933001,41.8381043 320.476156,36.6882141 325.562544,32.7038771 C330.648932,28.7195401 337.21875,26.7274015 345.272198,26.7274015 C353.325645,26.7274015 361.378971,29.4401009 369.432418,34.865581 L362.311511,47.5814865 C356.377392,43.5123764 350.464555,41.4778519 344.572823,41.4778519 C338.68109,41.4778519 335.735268,43.0885171 335.735268,46.3098959 C335.735268,48.0901316 336.667759,49.4888672 338.532768,50.5061447 C340.397776,51.5234223 343.491949,52.7102283 347.815379,54.0665983 C352.138808,55.4229683 355.211788,56.4614235 357.03441,57.1819951 C358.857032,57.9025667 361.039908,59.0257938 363.583101,60.5517101 C368.330397,63.4339964 370.704008,68.2447992 370.704008,74.9842628 C370.704008,81.7237264 368.224432,87.1279322 363.265204,91.1970423 L363.265204,91.1970423 Z M412.348599,96.2834045 L393.274741,96.2834045 L393.274741,27.871833 L412.348599,27.871833 L412.348599,96.2834045 Z M391.621673,11.2139968 C391.621673,8.07739112 392.702514,5.42827064 394.864229,3.2665559 C397.025944,1.10484116 399.675064,0.024 402.81167,0.024 C405.948276,0.024 408.597396,1.10484116 410.759111,3.2665559 C412.920825,5.42827064 414.001667,8.07739112 414.001667,11.2139968 C414.001667,14.3506025 412.920825,16.999723 410.759111,19.1614377 C408.597396,21.3231525 405.948276,22.4039936 402.81167,22.4039936 C399.675064,22.4039936 397.025944,21.3231525 394.864229,19.1614377 C392.702514,16.999723 391.621673,14.3506025 391.621673,11.2139968 L391.621673,11.2139968 Z M444.074783,87.0007935 C437.716799,80.1341702 434.537854,71.6145987 434.537854,61.4418235 C434.537854,51.2690482 437.632027,42.9402134 443.820465,36.4550692 C450.008903,29.969925 457.256897,26.7274015 465.564663,26.7274015 C473.87243,26.7274015 480.654178,29.6520305 485.910112,35.5013763 L485.910112,1.93138582 L504.98397,1.93138582 L504.98397,96.2834045 L485.910112,96.2834045 L485.910112,87.2551116 C480.569405,93.9521886 473.851236,97.3006769 465.755402,97.3006769 C457.659568,97.3006769 450.432768,93.8674168 444.074783,87.0007935 L444.074783,87.0007935 Z M458.698074,75.7472171 C462.004226,79.2653019 465.861346,81.0243179 470.269548,81.0243179 C474.677751,81.0243179 478.428906,79.2653019 481.523125,75.7472171 C484.617344,72.2291324 486.16443,67.6938381 486.16443,62.1411983 C486.16443,56.5885584 484.617344,51.9684923 481.523125,48.2808613 C478.428906,44.5932303 474.635365,42.7494424 470.142389,42.7494424 C465.649414,42.7494424 461.792294,44.6144232 458.570915,48.3444408 C455.349537,52.0744584 453.738871,56.6945245 453.738871,62.2047778 C453.738871,67.715031 455.391922,72.2291324 458.698074,75.7472171 L458.698074,75.7472171 Z M590.244117,86.3649982 C582.529762,93.6554871 573.480366,97.3006769 563.095658,97.3006769 C552.71095,97.3006769 544.1278,94.1005394 537.34595,87.7001683 C530.5641,81.2997972 527.173225,72.7166468 527.173225,61.9504597 C527.173225,51.1842725 530.627678,42.6223151 537.536688,36.2643306 C544.445698,29.9063461 552.604989,26.7274015 562.014806,26.7274015 C571.424624,26.7274015 579.414371,29.5672587 585.984288,35.2470582 C592.554206,40.9268577 595.839115,48.7258684 595.839115,58.6443243 L595.839115,68.8170486 L545.992765,68.8170486 C546.586177,72.5470662 548.53593,75.598853 551.842082,77.9725006 C555.148234,80.3461481 558.878196,81.5329541 563.032079,81.5329541 C569.729156,81.5329541 575.239326,79.2864999 579.562756,74.7935242 L590.244117,86.3649982 Z M571.933213,45.8012597 C569.305246,43.5971584 566.105108,42.4951243 562.332704,42.4951243 C558.5603,42.4951243 555.105847,43.6395443 551.969241,45.9284188 C548.832635,48.2172932 547.01004,51.3114659 546.501402,55.2110298 L576.510939,55.2110298 C576.087073,51.1419197 574.56118,48.005361 571.933213,45.8012597 L571.933213,45.8012597 Z" id="poolside" fill="#FFFFFF" sketch:type="MSShapeGroup"></path>
    </g>
</svg>