<?xml version="1.0" encoding="UTF-8" standalone="no"?>
<svg width="500px" height="814px" viewBox="0 0 500 814" version="1.1" xmlns="http://www.w3.org/2000/svg" xmlns:xlink="http://www.w3.org/1999/xlink" xmlns:sketch="http://www.bohemiancoding.com/sketch/ns">
    <!-- Generator: Sketch 3.4.4 (17249) - http://www.bohemiancoding.com/sketch -->
    <title>Group</title>
    <desc>Created with Sketch.</desc>
    <defs></defs>
    <g id="Page-1" stroke="none" stroke-width="1" fill="none" fill-rule="evenodd" sketch:type="MSPage">
        <g id="Group" sketch:type="MSLayerGroup">
            <path d="M77.712368,233.24506 L90.9220951,122.292962 L188.715889,75.877487 L270.428037,64.1235267 L354.401408,82.7348819 L412.136884,129.210944 L426.815581,223.330754 L429.693002,349.908899 C429.693002,349.908899 419.047095,473.898309 419.047095,490.923375 C419.047095,507.948442 391.653829,557.17297 376.171875,574.936101 C360.689921,592.699232 333.544234,614.742039 307.537412,623.989883 C281.53059,633.237727 238.402289,639.114707 238.402289,639.114707 L125.12654,556.396349 L50.3301056,414.891666 L64.5741637,298.657446 L77.712368,233.24506 Z" id="Path-10" fill="#F7D7CA" sketch:type="MSShapeGroup"></path>
            <path d="M250.277845,813.701486 C240.589244,815.812407 239.015382,769.720422 233.849588,770.181814 C227.789782,770.723057 216.180439,797.064565 211.445043,797.247869 C205.819283,797.465639 203.346064,781.597036 198.624566,781.597036 C195.834762,781.597036 177.542551,799.74337 170.356509,792.32101 C164.826232,786.608864 168.139337,775.123312 160.406575,773.885909 C154.120686,772.880036 142.728142,800.791795 136.911307,797.247869 C132.335797,794.460224 134.979755,768.216672 130.559535,765.618479 C127.096709,763.58304 123.324816,772.401391 120.125435,770.181814 C113.022552,765.254175 121.44782,746.035146 114.007478,742.931243 C103.549208,738.568345 93.7717003,777.080932 84.7051008,770.181814 C79.4206922,766.160708 83.9637506,731.472819 78.9667699,727.558561 C72.7022686,722.651423 62.132701,739.641546 56.8469416,734.082725 C52.9304962,729.963957 68.6095728,677.378128 65.0390631,673.856071 C61.7745801,670.635889 52.7742071,688.109586 49.9532356,685.249261 C45.0721686,680.300101 58.7119557,645.975889 49.9532356,641.35094 C45.6587458,639.08328 30.457357,656.245716 20.7595186,668.215933 C9.85437664,681.676346 29.9281066,624.974975 31.9157136,606.502155 C37.4022377,555.510397 9.49893021,594.022451 9.28009451,574.184272 C9.22686051,569.358435 38.4834005,506.590696 38.4421764,502.202281 C38.4277679,500.66846 10.195243,532.600349 1.62989653,538.456969 C-2.379355,541.198325 8.36292494,521.985708 9.28009455,520.57404 C28.3161866,491.274513 37.8638841,460.796251 38.4421764,458.770726 C39.986796,453.360544 16.4090009,482.468671 19.3510674,467.880871 C22.2931338,453.293072 39.9867953,365.865426 39.9867953,365.865426 C39.9867953,365.865426 70.0374115,235.409683 70.037412,325.552755 C70.0374125,415.695826 126.056338,490.317501 136.911307,496.329432 C147.766276,502.341362 160.75044,476.299774 170.356514,455.413637 C179.962589,434.527499 223.165169,425.230079 253.163518,421.06607 C254.613495,420.864802 255.976167,420.898019 257.256754,421.136027 C257.278829,420.917356 320.593095,434.527499 330.19917,455.413637 C339.805244,476.299774 352.789408,502.341362 363.644377,496.329432 C374.499346,490.317501 430.518272,374.711187 430.518271,324.451165 C430.518271,274.191143 460.568888,365.865426 460.568888,365.865426 C460.568888,365.865426 478.26255,453.293072 481.204616,467.880871 C484.146683,482.468671 460.568888,453.360544 462.113507,458.770726 C462.6918,460.796251 472.239497,491.274513 491.275589,520.57404 C492.192759,521.985708 502.935039,541.198325 498.925787,538.456969 C490.360441,532.600349 462.127916,500.66846 462.113507,502.202281 C462.072283,506.590696 477.861888,540.904377 477.808654,545.730214 C477.589818,565.568393 463.153446,555.510397 468.63997,606.502155 C470.627577,624.974975 484.182738,657.939625 491.275589,673.856071 C495.725244,683.841154 479.545112,680.401256 468.63997,666.940843 C458.942132,654.970626 454.896938,639.08328 450.602448,641.35094 C441.843728,645.975889 455.483515,680.300101 450.602448,685.249261 C447.781477,688.109586 438.781104,670.635889 435.516621,673.856071 C431.946111,677.378128 447.625187,729.963957 443.708742,734.082725 C438.422983,739.641546 427.853415,722.651423 421.588914,727.558561 C416.591933,731.472819 435.80268,788.299904 430.518271,792.32101 C421.451672,799.220128 401.711851,751.393601 391.253582,755.756499 C383.81324,758.860403 399.82406,781.91847 392.721177,786.84611 C389.521796,789.065686 371.750684,769.734041 368.287858,771.76948 C363.867638,774.367673 372.863368,810.913841 368.287858,813.701486 C362.471023,817.245412 346.992046,778.540829 340.706157,779.546702 C332.973396,780.784105 335.729447,797.699117 330.19917,803.411262 C323.013128,810.833623 306.448481,770.181814 303.658677,770.181814 C298.937178,770.181814 288.8564,801.654433 283.23064,801.436663 C278.495244,801.253359 272.765902,770.723057 266.706096,770.181814 C261.540302,769.720422 259.966445,811.590565 250.277845,813.701486 Z M222.540719,536.73849 C222.540719,536.73849 209.149434,562.78282 198.624566,562.78282 C188.099697,562.78282 168.166809,523.398241 180.589784,510.84012 C185.158631,506.221569 198.571352,481.298758 210.879737,476.29978 C228.582247,469.110011 263.02105,469.648159 273.800011,470.015827 C278.530556,471.839989 283.888563,473.949269 289.675946,476.29978 C301.984332,481.298758 315.397052,506.221569 319.9659,510.84012 C332.388875,523.398241 312.455986,562.78282 301.931118,562.78282 C291.40625,562.78282 278.014965,536.73849 278.014965,536.73849 C278.014965,536.73849 264.249556,533.918416 250.34661,533.918416 C236.443665,533.918416 222.540719,536.73849 222.540719,536.73849 Z" id="Path-1" fill="#4B2F15" sketch:type="MSShapeGroup"></path>
            <path d="M210.077697,298.227508 C210.757365,297.822596 210.706428,297.054289 210.706426,295.563284 C210.706426,295.563284 211.459564,295.984671 210.190286,294.441751 C203.028897,285.736451 176.322984,259.386856 137.498625,293.409305 C136.416962,294.357185 134.210422,296.587099 134.149428,297.718065 C133.845786,303.348211 172.754295,320.462913 210.077697,298.227508 Z" id="Path-6" fill="#FFFFFF" sketch:type="MSShapeGroup"></path>
            <path d="M85.3323063,241.209552 C85.3323063,241.209552 89.9702905,150.592797 114.315581,140.915333 C138.660871,131.237869 204.715009,99.5781858 226.43596,99.5781858 C248.15691,99.5781858 317.996259,101.47292 333.96787,101.47292 C349.939481,101.47292 397.276629,133.980827 397.276629,147.458775 C397.276629,160.936723 420.273988,244.580416 420.273988,244.580416 L432.93904,242.487396 L436.300616,129.750723 L391.895907,59.6455653 C391.895907,59.6455653 383.377889,41.2394839 378.306558,37.360409 C374.889029,34.7463311 380.144971,52.1740724 375.283341,48.6654716 C367.48501,43.0374774 353.70973,17.5329853 343.725242,11.0379271 C341.461825,9.5655403 343.10388,26.5487797 340.850689,25.1601003 C327.969895,17.2214522 315.626327,11.0379271 308.051827,11.0379271 L278.466109,11.0379271 C278.466109,11.0379271 288.872408,0.691247432 286.330876,0.691247432 C280.917143,0.691247432 250.649208,15.2074435 238.069432,15.2074435 C229.63582,15.2074435 243.604187,3.96886715 230.064371,5.34546321 C220.839693,6.28333816 190.837125,23.0915979 173.946413,24.4326695 C162.770074,25.3200372 161.245599,11.0379271 161.245599,11.0379271 C161.245599,11.0379271 159.5622,22.8867743 155.378635,24.4326696 C146.743464,27.6235065 140.266461,30.5775874 137.846611,32.7061932 C127.172958,42.095205 118.282147,27.6079153 105.017606,52.3530425 C102.618029,56.8294748 100.533671,83.7676221 94.0663512,63.886685 C83.1806376,30.4233334 53.6751761,158.783115 53.6751761,173.731685 C53.6751761,188.680255 65.0033011,242.322157 65.0033011,242.322157 L85.3323063,241.209552 Z" id="Path-5" fill="#513318" sketch:type="MSShapeGroup"></path>
            <ellipse id="Oval-1" fill="#4990E2" sketch:type="MSShapeGroup" cx="178.873239" cy="293.287197" rx="11.2676056" ry="11.2802768"></ellipse>
            <path d="M377.338486,295.286815 C378.018153,294.881904 377.967217,294.113596 377.967215,292.622591 C377.967215,292.622591 378.720353,293.043979 377.451075,291.501059 C370.289685,282.795758 343.583773,256.446164 304.759413,290.468613 C303.677751,291.416492 301.471211,293.646407 301.410217,294.777372 C301.106574,300.407519 340.015084,317.52222 377.338486,295.286815 Z" id="Path-6" fill="#FFFFFF" sketch:type="MSShapeGroup" transform="translate(339.798739, 289.964438) scale(-1, 1) translate(-339.798739, -289.964438) "></path>
            <ellipse id="Oval-1" fill="#000000" sketch:type="MSShapeGroup" cx="178.873239" cy="293.287197" rx="4.22535211" ry="4.23010381"></ellipse>
            <ellipse id="Oval-1" fill="#4990E2" sketch:type="MSShapeGroup" transform="translate(333.802817, 290.467128) scale(-1, 1) translate(-333.802817, -290.467128) " cx="333.802817" cy="290.467128" rx="11.2676056" ry="11.2802768"></ellipse>
            <ellipse id="Oval-1" fill="#000000" sketch:type="MSShapeGroup" transform="translate(333.802817, 290.467128) scale(-1, 1) translate(-333.802817, -290.467128) " cx="333.802817" cy="290.467128" rx="4.22535211" ry="4.23010381"></ellipse>
            <path d="M221.660431,253.742887 C221.660431,253.742887 225.946303,230.166117 219.704555,230.166117 C213.462808,230.166117 194.710057,211.951334 187.491747,216.360446 C180.273438,220.769558 136.179577,226.362803 130.611796,230.535149 C125.044014,234.707496 119.787082,239.234953 119.787082,239.234953 L143.516175,241.438132 L161.53169,233.385512 L195.722381,241.683236 L221.660431,253.742887 Z" id="Path-8" fill="#523419" sketch:type="MSShapeGroup"></path>
            <path d="M397.888248,232.655558 C397.888248,232.655558 402.17412,209.078788 395.932372,209.078788 C389.690625,209.078788 370.937874,190.864005 363.719564,195.273117 C356.501254,199.682229 312.407394,205.275474 306.839613,209.44782 C301.271831,213.620167 288.732394,236.029327 288.732394,236.029327 L302.31349,227.522302 L329.283121,216.440236 L368.824274,213.620167 L397.888248,232.655558 Z" id="Path-8" fill="#523419" sketch:type="MSShapeGroup" transform="translate(344.027839, 215.307051) scale(-1, 1) translate(-344.027839, -215.307051) "></path>
            <path d="M255.004056,302.863662 C238.878747,304.392073 236.124577,351.671248 225.765471,360.601759 C215.406365,369.53227 202.977678,388.45105 214.43691,396.215412 C225.896142,403.979774 235.526566,404.04514 249.698779,404.04514 C263.870991,404.04514 256.463631,401.653498 247.082691,387.941278 C237.701752,374.229059 271.129366,301.335251 255.004056,302.863662 Z" id="Path-11" fill="#CCAA9C" sketch:type="MSShapeGroup"></path>
            <path d="M291.547069,400.146585 C291.54707,395.727834 278.31525,391.756604 274.422841,394.090597 C270.530431,396.42459 267.475491,396.928567 269.848125,400.146585 C272.22076,403.364604 277.970101,405.282747 281.075845,405.282747 C284.181589,405.282747 291.547068,404.565337 291.547069,400.146585 Z" id="Path-12" opacity="0.455398787" fill="#F7D7CA" sketch:type="MSShapeGroup" transform="translate(280.280577, 399.341201) scale(-1, 1) translate(-280.280577, -399.341201) "></path>
            <path d="M249.295775,517.796652 C275.743213,517.796652 299.207746,508.788315 299.207746,500.222168 C299.207746,491.656021 275.743213,498.404545 249.295775,498.404545 C222.848336,498.404545 201.960002,491.656021 201.960002,500.222168 C201.960002,508.788315 222.848336,517.796652 249.295775,517.796652 Z" id="Oval-5" fill="#895656" sketch:type="MSShapeGroup"></path>
            <path d="M61.0420335,247.842085 C61.0420335,247.842085 64.7915694,271.611978 64.7915694,271.611978 C64.7915694,271.611978 72.8130225,275.470324 74.8793303,280.85109 C76.945638,286.231856 87.6796037,329.768026 94.9271588,335.669823 C102.174714,341.571621 111.368622,350.247089 130.955982,355.525199 C150.543341,360.803308 184.161471,359.7012 195.586141,355.201733 C207.010811,350.702266 227.354655,332.82836 234.002439,316.720927 C240.650224,300.613493 239.206904,293.766478 246.651803,289.501378 C254.096702,285.236279 261.901463,288.137786 264.894514,291.95352 C267.887565,295.769254 278.164931,329.421317 287.716767,338.466737 C297.268604,347.512157 312.212575,359.172418 336.269195,359.172418 C360.325815,359.172418 385.542075,357.093372 400.49209,346.617298 C418.975678,333.665108 423.712901,309.174685 428.253748,294.423096 C432.794594,279.671507 442.666631,275.501315 442.666631,275.501315 C442.666631,275.501315 449.374899,253.775648 449.295068,251.680094 C449.215236,249.58454 437.228063,248.279829 437.228063,248.279829 C437.228063,248.279829 372.506003,240.02661 300.236502,255.31182 C275.478109,260.548292 264.633324,265.422556 255.092128,265.422547 C242.421483,265.422535 203.773982,251.965789 169.877248,248.279829 C135.980515,244.593869 86.0389399,243.625409 61.0420335,247.842085 Z M98.8121271,264.44537 C92.0260088,270.700656 91.9418477,305.103274 98.812127,320.39139 C105.682406,335.679506 118.671698,353.554641 161.287654,353.559432 C203.90361,353.564224 211.094211,329.925036 216.260827,323.987284 C221.484639,317.983799 227.163108,292.342841 227.163116,286.258973 C227.163123,280.175105 219.133924,269.127876 185.125942,264.44537 C145.401342,258.975752 105.598246,258.190085 98.8121271,264.44537 Z M410.253919,264.44537 C417.040038,270.700656 417.124199,305.103274 410.253919,320.39139 C403.38364,335.679506 390.394349,353.554641 347.778392,353.559432 C305.162436,353.564224 297.971836,329.925036 292.805219,323.987284 C287.581408,317.983799 281.902938,292.342841 281.902931,286.258973 C281.902923,280.175105 289.932123,269.127876 323.940104,264.44537 C363.664705,258.975752 403.467801,258.190085 410.253919,264.44537 Z" id="Path-2" fill="#D0011B" sketch:type="MSShapeGroup"></path>
            <g id="grey" transform="translate(44.943820, 35.597701)" fill="#FFFFFF" opacity="0.235307836" sketch:type="MSShapeGroup">
                <path d="M44.2438455,384.337868 C44.2438455,384.337868 48.5899053,421.487993 39.8850744,455.306396 C31.1802434,489.124799 23.655876,496.811929 13.0007217,505.717887 C-10.458786,525.326181 21.9355811,508.906989 25.3150378,505.717887 C28.6944946,502.528786 40.8753933,487.4136 45.6784282,468.339578 C50.4814632,449.265555 55.3573991,408.12394 55.3573991,408.12394 L44.2438455,384.337868 Z" id="Path-14"></path>
                <path d="M266.496115,590.062275 C266.496115,590.062275 269.482885,601.775874 275.778045,617.111861 C280.555926,628.751521 287.239591,642.477842 295.969656,654.753303 C316.202134,683.202462 325.978462,687.679491 339.113931,692.17116 C368.034358,702.060489 331.914109,698.354011 327.617526,696.589179 C323.320943,694.824347 306.538382,685.083258 295.226522,668.999313 C283.914663,652.915368 266.496115,590.062275 266.496115,590.062275 L266.496115,590.062275 Z" id="Path-14"></path>
                <path d="M399.844974,365.857326 C399.844974,365.857326 402.756451,381.421728 394.05162,402.923219 C385.346789,424.42471 377.822422,429.31213 367.167268,434.974472 C343.70776,447.441281 376.102127,437.00208 379.481584,434.974472 C382.861041,432.946865 395.041939,423.336742 399.844974,411.209619 C404.648009,399.082496 407.28473,384.471435 407.28473,384.471435 L399.844974,365.857326 Z" id="Path-14" transform="translate(382.994288, 403.425660) scale(-1, 1) translate(-382.994288, -403.425660) "></path>
                <path d="M190.015051,524.186036 C190.015051,524.186036 191.949331,540.720269 191.416027,563.54581 C191.011261,580.869867 189.185053,601.818006 184.012884,621.911965 C172.026054,668.480985 161.66476,679.066408 146.992272,691.330197 C144.471149,693.437442 131.112606,686.189566 128.944824,687.664677 C119.46841,694.113093 135.959928,703.123168 139.93184,702.211166 C146.693662,700.658565 160.2718,698.261968 163.949478,691.330197 C167.958433,683.77403 185.376585,666.124609 191.990517,639.859071 C198.604449,613.593533 190.015051,524.186036 190.015051,524.186036 Z" id="Path-14"></path>
                <path d="M301.880009,501.625482 C301.880009,501.625482 304.643202,525.245258 299.108735,546.746748 C293.574268,568.248239 283.950788,576.835131 276.579634,576.835131 C272.769665,576.835131 277.840506,566.136862 274.956614,564.217799 C272.322456,562.46492 267.127609,574.412272 267.127609,578.798004 C267.127609,587.985261 288.711968,579.867415 289.845213,578.798002 C291.993847,576.770395 299.738372,567.160271 302.792106,555.033149 C305.84584,542.906026 308.945925,516.748491 308.945925,516.748491 L301.880009,501.625482 Z" id="Path-14" transform="translate(288.036767, 542.377458) scale(-1, 1) translate(-288.036767, -542.377458) "></path>
                <path d="M354.171456,427.535199 C354.171456,427.535199 355.203233,436.861485 358.387041,449.329786 C360.803477,458.792938 364.459582,470.066035 369.845136,480.445281 C382.326497,504.499838 389.357685,508.998212 398.969191,513.871109 C420.130891,524.59979 392.768141,517.844745 389.656136,516.023615 C386.544132,514.202484 374.695821,504.900378 367.736792,491.314658 C360.777763,477.728938 354.171456,427.535199 354.171456,427.535199 L354.171456,427.535199 Z" id="Path-14"></path>
                <path d="M308.863179,514.45735 C308.863179,514.45735 310.192495,526.473098 314.294432,542.536939 C317.407706,554.729023 322.118138,569.252993 329.056748,582.625347 C345.137414,613.616623 354.196218,619.412215 366.579436,625.69033 C393.843629,639.512889 358.590162,630.809862 354.580735,628.463564 C350.571307,626.117266 335.306247,614.132669 326.340412,596.629175 C317.374576,579.125681 308.863179,514.45735 308.863179,514.45735 L308.863179,514.45735 Z" id="Path-14"></path>
                <path d="M103.362395,534.197834 C103.362395,534.197834 102.033079,546.213583 97.9311427,562.277424 C94.8178678,574.469507 90.107436,588.993477 83.1688264,602.365831 C67.0881598,633.357108 58.029356,639.152699 45.6461384,645.430814 C18.3819448,659.253373 53.6354119,650.550346 57.6448393,648.204048 C61.6542668,645.85775 76.9193273,633.873153 85.8851625,616.369659 C94.8509977,598.866165 103.362395,534.197834 103.362395,534.197834 L103.362395,534.197834 Z" id="Path-14"></path>
                <path d="M119.08842,610.046678 C119.08842,610.046678 108.416614,635.227956 102.882146,656.729447 C97.3476792,678.230938 92.563742,683.118358 85.7892736,688.780701 C70.873892,701.247509 91.4699912,690.808308 93.6186248,688.780701 C95.7672584,686.753093 103.511784,677.14297 106.565518,665.015848 C109.619252,652.888725 119.08842,610.046678 119.08842,610.046678 Z" id="Path-14"></path>
                <path d="M135.328464,501.625482 C135.328464,501.625482 137.679446,521.721674 132.970607,540.015586 C128.261768,558.309498 120.073913,565.615403 113.802383,565.615403 C110.560782,565.615403 114.875159,556.513095 112.421484,554.880317 C110.180288,553.388931 107.397179,568.808837 107.397179,572.540308 C107.397179,580.357016 118.52586,573.450187 119.490049,572.540308 C121.31815,570.815178 133.506315,557.383833 136.104495,547.065827 C138.702675,536.74782 141.340291,514.49245 141.340291,514.49245 L135.328464,501.625482 Z" id="Path-14"></path>
                <path d="M78.2295953,445.857512 C78.2295953,445.857512 83.1183918,476.44101 73.1606638,515.126938 C63.2029357,553.812865 45.8881723,569.262578 32.6258386,569.262578 C25.7708631,569.262578 34.8944262,550.014032 29.7056685,546.561215 C24.9662357,543.407397 15.6195601,564.90332 15.6195601,572.794221 C15.61956,589.324123 54.4545855,574.718327 56.4935439,572.794217 C60.35941,569.146104 74.2935205,551.855371 79.7878622,530.036001 C85.2822039,508.21663 90.0501278,459.770588 90.0501278,459.770588 L78.2295953,445.857512 Z" id="Path-14"></path>
                <path d="M371.988187,438.173925 C371.988187,438.173925 376.120779,473.499326 367.843508,505.656651 C359.566238,537.813976 345.173498,550.656409 334.149304,550.656409 C328.451168,550.656409 336.035047,534.65623 331.721939,531.786107 C327.782329,529.164525 322.890137,556.269877 322.890137,562.829116 C322.890137,576.569447 342.452307,564.428515 344.147172,562.829116 C347.360638,559.796656 368.785185,536.186827 373.352307,518.049674 C377.919428,499.912521 382.55587,460.791683 382.55587,460.791683 L371.988187,438.173925 Z" id="Path-14" transform="translate(352.723003, 503.740534) scale(-1, 1) translate(-352.723003, -503.740534) "></path>
                <path d="M31.9328414,342.464328 C31.9328414,342.464328 32.2864697,350.027722 31.3211163,360.367248 C30.5884354,368.214708 29.0959607,377.661347 26.1124178,386.614148 C19.1978683,407.362828 14.1612442,411.836568 7.11534356,416.934883 C-8.3976518,428.159871 12.5585852,419.318204 14.809212,417.473496 C17.0598388,415.628789 25.3299841,406.717741 29.1632756,395.01055 C32.996567,383.303359 31.9328414,342.464328 31.9328414,342.464328 L31.9328414,342.464328 Z" id="Path-14"></path>
                <path d="M280.155896,524.186036 C280.155896,524.186036 282.090176,540.720269 281.556872,563.54581 C281.152106,580.869867 279.325898,601.818006 274.153729,621.911965 C262.166899,668.480985 251.805605,679.066408 237.133117,691.330197 C234.611994,693.437442 221.253451,686.189566 219.085669,687.664677 C209.609255,694.113093 226.100773,703.123168 230.072685,702.211166 C236.834507,700.658565 250.412645,698.261968 254.090323,691.330197 C258.099278,683.77403 275.51743,666.124609 282.131362,639.859071 C288.745294,613.593533 280.155896,524.186036 280.155896,524.186036 Z" id="Path-14" transform="translate(250.412644, 613.230670) scale(-1, 1) translate(-250.412644, -613.230670) "></path>
                <path d="M74.9290701,103.011288 L79.8769877,100.820687 C79.8769877,100.820687 71.3914308,96.0758095 65.4479469,87.103074 C46.1688752,57.9979205 45.4974262,47.2562439 46.0161338,33.3697672 C47.158175,2.79584051 37.6702437,37.8832031 37.776248,42.5313788 C37.8822522,47.1795544 40.9517941,66.3559392 51.8967751,82.6923161 C56.7780529,89.9780659 74.9290701,103.011288 74.9290701,103.011288 L74.9290701,103.011288 Z" id="Path-14"></path>
                <path d="M176.192521,68.2975508 L179.297562,66.9228502 C179.297562,66.9228502 173.972494,63.9452268 170.242691,58.3144328 C158.144209,40.0496433 157.722845,33.3087593 158.048357,24.5943722 C158.765039,5.40786159 152.810936,27.4267557 152.877459,30.3436944 C152.943981,33.2606332 154.870257,45.2946749 161.738723,55.5464843 C164.801944,60.1186192 176.192521,68.2975508 176.192521,68.2975508 L176.192521,68.2975508 Z" id="Path-14"></path>
                <path d="M182.982429,64.0913319 C182.982429,64.0913319 174.624253,44.5890361 174.949765,35.874649 C175.666447,16.6881384 169.712345,38.7070325 169.778867,41.6239713 C169.84539,44.54091 178.219279,64.8259554 178.219279,64.8259554 L182.982429,64.0913319 L182.982429,64.0913319 Z" id="Path-14"></path>
                <path d="M315.649125,76.2206307 L310.701207,74.0300293 C310.701207,74.0300293 307.919159,76.3353251 313.862642,67.3625896 C333.141714,38.2574361 333.813163,27.5157594 333.294456,13.6292828 C332.152414,-16.9446439 341.640346,18.1427187 341.534341,22.7908943 C341.428337,27.43907 338.358795,46.6154548 327.413814,62.9518317 C322.532536,70.2375815 315.649125,76.2206307 315.649125,76.2206307 L315.649125,76.2206307 Z" id="Path-14"></path>
            </g>
        </g>
    </g>
</svg>